
        <svg xmlns="http://www.w3.org/2000/svg" xmlns:xlink="http://www.w3.org/1999/xlink" version="1.1" width="3179.1635833266605" height="723.2400709929658" viewBox="0 0 3179.1635833266605 723.2400709929658">
			
			<g transform="scale(8.958179166333055) translate(10, 10)">
				<defs id="SvgjsDefs10844"><linearGradient id="SvgjsLinearGradient10851"><stop id="SvgjsStop10852" stop-color="#006838" offset="0"/><stop id="SvgjsStop10853" stop-color="#96cf24" offset="1"/></linearGradient></defs><g id="SvgjsG10845" featureKey="symbolFeature-0" transform="matrix(0.6172252168125939,0,0,0.6172252168125939,-0.5998165406102925,-0.49357666135042977)" fill="#fff"><title xmlns="http://www.w3.org/2000/svg">Artboard 11</title><path xmlns="http://www.w3.org/2000/svg" d="M99,61.83a12.31,12.31,0,0,1-3.58,9.54L78.08,88.69V99.2H53.9L54,85.81a24.74,24.74,0,0,1,7.24-17.39L76,53.6a5,5,0,0,1,7.38.36,5.13,5.13,0,0,1-.48,6.84l-7.12,7.12a1.65,1.65,0,0,0,.2,2.51,1.7,1.7,0,0,0,2.18-.23L86.39,62a5.87,5.87,0,0,0,1.71-4.49l-1.27-19a5.17,5.17,0,0,1,10.33-.65Zm-77,26.86V99.2H46.1L46,85.81a24.74,24.74,0,0,0-7.24-17.39L24,53.6a5,5,0,0,0-7.38.36,5.13,5.13,0,0,0,.48,6.84l7.12,7.12a1.65,1.65,0,0,1-.2,2.51,1.7,1.7,0,0,1-2.18-.23L13.61,62a5.87,5.87,0,0,1-1.71-4.49l1.27-19a5.17,5.17,0,0,0-10.33-.65L1,61.83a12.31,12.31,0,0,0,3.58,9.54ZM25.23,7.1a2.31,2.31,0,0,1-.5-2.44,2.42,2.42,0,0,1,2.09-1.57,14.22,14.22,0,0,1,8.69,1.83.67.67,0,0,0,.69,0A30.46,30.46,0,0,1,51.64.8C65.31.8,77,9.57,78.94,21.26h1a3.73,3.73,0,0,1,3.75,3.28,3.6,3.6,0,0,1-.93,2.8A3.64,3.64,0,0,1,80,28.52H78.91A22.54,22.54,0,0,1,73.06,39.9a1.39,1.39,0,0,0-.32.55L68.82,53.33a2.73,2.73,0,0,1-2.62,1.94H62.25a2.76,2.76,0,0,1-2.63-2l-1.4-4.82a.44.44,0,0,0-.5-.3,32.07,32.07,0,0,1-12.14,0,.44.44,0,0,0-.5.3l-1.4,4.82a2.76,2.76,0,0,1-2.63,2H37.09a2.73,2.73,0,0,1-2.62-1.94l-2.94-9.67a1.41,1.41,0,0,0-.77-.87,49,49,0,0,1-12.56-8,5.69,5.69,0,0,1-1.86-4.21V22.85a4,4,0,0,1,4-4h2.48a25.82,25.82,0,0,0,4.52-5.45q.3-.49.63-1A9.27,9.27,0,0,0,25.23,7.1ZM31.4,21.46a3.13,3.13,0,1,0,3.13-3.13A3.13,3.13,0,0,0,31.4,21.46Z"/></g><g id="SvgjsG10846" featureKey="nameLeftFeature-0" transform="matrix(2.248219679529548,0,0,2.248219679529548,74.45865653968407,0.709661895821446)" fill="#fff"><path d="M14.068 19.77983 c0.067797 0.13559 0.034229 0.22017 -0.11831 0.22017 l-1.0339 0 c-0.11864 0 -0.18644 -0.050847 -0.23729 -0.15254 l-1.1864 -2.5254 l-8.1864 0 l-1.1864 2.5254 c-0.050847 0.10169 -0.11848 0.15254 -0.22034 0.15254 l-1.0678 0 c-0.11864 0 -0.18644 -0.08458 -0.11864 -0.22017 l6.3558 -13.271 c0.067797 -0.11864 0.11864 -0.15254 0.20322 -0.15254 l0.23745 0 c0.084746 0 0.15254 0.033898 0.20339 0.15254 z M3.8815 16.1019 l7.0339 0 l-3.5254 -7.4576 z M21.169457627118643 6.441000000000001 c3.0846 0 4.6437 2.4407 4.6437 4.4576 c0 2.0847 -1.5593 4.4746 -4.6439 4.4746 l-3.7966 0 l0 4.3898 c0 0.15254 -0.067797 0.23712 -0.20339 0.23712 l-0.91525 0 c-0.15238 0 -0.22017 -0.08458 -0.22017 -0.23712 l0 -13.102 c0 -0.15254 0.067797 -0.22034 0.22017 -0.22034 l4.9154 0 z M21.118457627118644 14.1019 c2.1864 0 3.3559 -1.6102 3.3559 -3.2034 s-1.1695 -3.1695 -3.3559 -3.1695 l-3.7456 0 l0 6.3729 l3.7456 0 z M36.287933898305084 7.728999999999999 l-7.3556 0.00049656 l0 4.9659 l4.5424 0 c0.15254 0 0.23729 0.067797 0.23729 0.23729 l0 0.81339 c0 0.15254 -0.084746 0.22034 -0.23729 0.22034 l-4.5424 0 l0 4.7458 l7.3559 0 c0.15254 0 0.23712 0.084746 0.23712 0.23712 l0 0.81356 c0 0.16949 -0.067797 0.23712 -0.23729 0.23712 l-8.4746 0 c-0.15254 0 -0.22034 -0.08458 -0.22034 -0.22017 l0 -13.119 c0 -0.15254 0.084746 -0.22034 0.22034 -0.22034 l8.4746 0 c0.15254 0 0.23712 0.084746 0.23712 0.22034 l0 0.84746 c0 0.13559 -0.067797 0.22034 -0.23729 0.22034 z M44.610215254237296 13.2203 l4.7458 6.5424 c0.084746 0.11864 0.067797 0.23729 -0.050847 0.23729 l-1.2712 0 c-0.13559 0 -0.18644 -0.10153 -0.27119 -0.23712 l-3.949 -5.4407 l-3.9492 5.4407 c-0.084746 0.13559 -0.13559 0.23712 -0.25424 0.23712 l-1.2881 0 c-0.11864 0 -0.13559 -0.11864 -0.050847 -0.23729 l4.7458 -6.5424 l-4.7966 -6.6102 c-0.050847 -0.10169 -0.016949 -0.16949 0.084746 -0.16949 l1.3051 0 c0.084746 0 0.13559 0.067797 0.20339 0.16949 l4 5.5254 l4 -5.5254 c0.08458 -0.10169 0.11848 -0.16949 0.22017 -0.16949 l1.2712 0 c0.11864 0 0.15254 0.067797 0.10169 0.16949 z"/></g><g id="SvgjsG10847" featureKey="nameRightFeature-0" transform="matrix(2.2232908233673228,0,0,2.2232908233673228,188.30349549771975,0.9444232047549121)" fill="#fff"><path d="M12.797 13.813600000000001 l0 3.8475 c0 0.08458 -0.033898 0.18627 -0.11864 0.25407 c-1.2542 1.3729 -3.0339 2.2032 -5.0678 2.2032 c-3.7288 0 -6.8475 -2.9998 -6.8475 -6.8642 c0 -3.8475 3.1186 -6.9322 6.8475 -6.9322 c2.0508 0 3.8475 0.84746 5.1186 2.2373 c0.15254 0.15254 0.13559 0.32203 -0.016949 0.45763 l-1.4068 1.1356 c-0.16966 0.13559 -0.32203 0.11864 -0.45763 -0.033898 c-0.72881 -0.76271 -1.8644 -1.4575 -3.2203 -1.4575 c-2.4915 0 -4.4405 2.1524 -4.4405 4.5931 c0 2.4746 1.949 4.5254 4.4405 4.5254 c1.1017 0 2.0508 -0.45763 2.7627 -1.0339 l0 -0.9661 l-2.678 0 c-0.22034 0 -0.33898 -0.10169 -0.33898 -0.32186 l0 -1.6271 c0 -0.22034 0.084746 -0.35593 0.30508 -0.35593 l4.7797 0 c0.22034 0 0.33898 0.11881 0.33898 0.33898 z M25.186169491525426 6.4239999999999995 l-1.7798 0 c-0.18644 0 -0.32203 0.11864 -0.32203 0.33898 l0 8.2203 c0 1.7458 -1.1186 2.7966 -2.9661 2.7966 c-1.8305 0 -2.8983 -1.0508 -2.8983 -2.7966 l0 -8.2203 c0 -0.20339 -0.13559 -0.33898 -0.32203 -0.33898 l-1.7458 0 c-0.20339 0 -0.35576 0.13559 -0.35576 0.33898 l0 8.3051 c0 2.8814 1.9661 5.0507 5.322 5.0507 c3.3729 0 5.3898 -2.1693 5.3898 -5.0507 l0 -8.3051 c0 -0.22034 -0.13559 -0.33898 -0.32203 -0.33898 z M40.18594915254238 19.62712 c0.10169 0.20339 0.034229 0.37271 -0.20305 0.37271 l-1.9831 0 c-0.16949 0 -0.27119 -0.08458 -0.33898 -0.22017 l-0.91525 -1.9322 l-6.5256 0 l-0.91525 1.9322 c-0.067797 0.13559 -0.18644 0.22017 -0.33898 0.22017 l-2 0 c-0.20339 0 -0.32203 -0.16933 -0.22034 -0.37271 l6.3898 -13.102 c0.067797 -0.11881 0.15238 -0.16966 0.23712 -0.16966 l0.20339 0 c0.10169 0 0.16949 0.050847 0.23729 0.16966 z M31.254449152542374 15.6441 l4.4576 0 l-2.2203 -4.7288 z M52.38925423728814 19.61017 c0.13559 0.20339 0.034064 0.38983 -0.23712 0.38983 l-1.5763 0 c-0.47458 0 -0.88136 -0.44068 -1.0339 -0.69492 l-2.339 -3.5763 l-2.8475 0 l0 3.9322 c0 0.20339 -0.13559 0.33881 -0.32203 0.33881 l-1.7966 0 c-0.16949 0 -0.30508 -0.13543 -0.30508 -0.33881 l0 -12.898 c0 -0.16949 0.13559 -0.32203 0.32203 -0.32203 l5.4068 0 c2.7797 0 4.4915 2.5763 4.4915 4.6441 c0 1.6442 -0.98305 3.4576 -2.661 4.2373 z M44.35605423728814 8.78 l0.00033103 4.6102 l2.9659 0 c1.6102 0 2.3898 -1.1695 2.3898 -2.3559 c0 -1.1356 -0.79661 -2.2542 -2.3902 -2.2542 l-2.9659 0 z M58.96589322033899 6.441000000000001 c4.4068 0 6.9661 3.5424 6.9661 6.7288 c0 3.6102 -2.5763 6.8303 -6.9661 6.8303 l-4.4746 0 c-0.18644 0 -0.33898 -0.15238 -0.33898 -0.33881 l0 -12.898 c0 -0.16949 0.13559 -0.32203 0.32203 -0.32203 l4.4915 0 z M58.96589322033899 17.6612 c2.7966 0 4.4746 -2.1866 4.4576 -4.5086 c0 -2.288 -1.5932 -4.3727 -4.4576 -4.3727 l-2.4068 0 l0.016949 8.8814 l2.3898 0 z"/></g>
			</g>
		</svg>
	